<?xml version="1.0" standalone="no"?>
<!DOCTYPE svg PUBLIC "-//W3C//DTD SVG 20010904//EN"
 "http://www.w3.org/TR/2001/REC-SVG-20010904/DTD/svg10.dtd">
<svg version="1.0" xmlns="http://www.w3.org/2000/svg"
 width="64.000000pt" height="64.000000pt" viewBox="0 0 64.000000 64.000000"
 preserveAspectRatio="xMidYMid meet">
<metadata>
Created by potrace 1.10, written by Peter Selinger 2001-2011
</metadata>
<g transform="translate(0.000000,64.000000) scale(0.100000,-0.100000)"
fill="#000000" stroke="none">
<path d="M255 543 c-136 -81 -158 -103 -170 -165 -7 -35 20 -107 45 -123 5 -3
10 -31 10 -61 0 -48 4 -60 29 -85 29 -29 30 -29 151 -29 121 0 122 0 151 29
25 25 29 37 29 84 0 35 5 59 14 67 8 6 23 31 32 56 16 41 16 47 0 89 -15 38
-30 53 -94 97 -90 60 -146 72 -197 41z m125 -38 c16 -8 33 -21 37 -27 4 -7 26
-22 48 -33 31 -16 42 -28 49 -57 11 -42 -6 -93 -35 -109 -15 -8 -19 -21 -19
-72 0 -36 -5 -68 -12 -75 -13 -13 -222 -18 -252 -6 -12 5 -16 21 -16 75 0 53
-4 71 -15 76 -21 7 -45 56 -45 89 0 29 58 94 84 94 9 0 16 4 16 9 0 17 65 51
98 51 18 0 46 -7 62 -15z"/>
<path d="M262 450 c-15 -16 -36 -30 -49 -30 -25 0 -53 -34 -53 -67 0 -13 12
-30 30 -43 19 -14 30 -30 30 -46 0 -24 1 -24 100 -24 99 0 100 0 100 24 0 16
11 32 30 46 19 14 30 30 30 46 0 28 -32 64 -58 64 -10 0 -29 14 -44 30 -19 22
-35 30 -58 30 -23 0 -39 -8 -58 -30z m99 -36 c7 -8 25 -22 41 -30 36 -18 35
-31 -3 -71 -26 -29 -37 -33 -79 -33 -42 0 -53 4 -79 33 -38 40 -39 53 -3 71
16 8 34 22 41 30 8 9 26 16 41 16 15 0 33 -7 41 -16z"/>
<path d="M220 180 c0 -19 7 -20 100 -20 93 0 100 1 100 20 0 19 -7 20 -100 20
-93 0 -100 -1 -100 -20z"/>
</g>
</svg>
